# xmcd CD database file
#
# Track frame offsets:
#	202
#	18045
#	47382
#	84825
#	99772
#	133987
#	166155
#	182632
#	198605
#	241900
#	272087
#	304932
#
# Disc length: 4530 seconds
#
# Revision: 1
# Processed by: cddbd v1.5.2PL0 Copyright (c) Steve Scherf et al.
# Submitted via: CDex 1.51
#
DISCID=8e11b00c
DTITLE=Creole Rice Yerba Buena Jazz Band - Jazzin' and Stompin'
DYEAR=1988
DGENRE=Jazz
TTITLE0=Emperor Norton's Hunch
TTITLE1=Royal Garden Blues
TTITLE2=New Orleans Voice
TTITLE3=Cake Walking Babies From Home
TTITLE4=Texas Moaner
TTITLE5=Weary Blues
TTITLE6=London Blues
TTITLE7=I Got What It Takes
TTITLE8=Struttin' With Some Barbecue
TTITLE9=Mood Indigo
TTITLE10=Sunny Side Of The Street
TTITLE11=Sweet Georgia Brown
EXTD=YEAR: 1988
EXTT0=
EXTT1=
EXTT2=
EXTT3=
EXTT4=
EXTT5=
EXTT6=
EXTT7=
EXTT8=
EXTT9=
EXTT10=
EXTT11=
PLAYORDER=
